<svg xmlns="http://www.w3.org/2000/svg" viewBox="0 0 28 24" width="28" height="24">
	<style>
		tspan { white-space:pre }
		.shp0 { fill: #ffffff } 
	</style>
	<g id="Services">
		<g id="Fast and reliable">
			<path id="Dashboard" class="shp0" d="M17.7 10.65C17.7 10.65 16.72 16.36 15.68 17.59C14.63 18.83 12.78 18.98 11.55 17.93C10.32 16.87 10.18 15.01 11.22 13.78C12.27 12.54 17.7 10.65 17.7 10.65ZM23.9 23.16L3.8 23.16C3.49 23.16 3.2 23.02 3.01 22.77C1.31 20.55 0.34 17.56 0.34 14.59C0.34 7.04 6.4 0.9 13.85 0.9C21.31 0.9 27.37 7.03 27.37 14.56C27.37 17.56 26.39 20.55 24.69 22.77C24.5 23.02 24.21 23.16 23.9 23.16ZM4.31 21.15L23.39 21.15C24.65 19.32 25.37 16.95 25.37 14.56C25.37 8.14 20.2 2.91 13.85 2.91C7.5 2.91 2.34 8.15 2.34 14.59C2.34 16.96 3.05 19.32 4.31 21.15ZM5.92 14.8C5.36 14.8 4.91 14.35 4.91 13.79C4.91 8.78 8.92 4.71 13.85 4.71C18.78 4.71 22.79 8.77 22.79 13.76C22.79 14.32 22.34 14.77 21.79 14.77C21.24 14.77 20.79 14.32 20.79 13.76C20.79 9.88 17.68 6.72 13.85 6.72C10.03 6.72 6.92 9.9 6.92 13.79C6.92 14.35 6.47 14.8 5.92 14.8Z" />
		</g>
	</g>
</svg>