<svg xmlns="http://www.w3.org/2000/svg" viewBox="0 0 67 70" width="67" height="70">
	<style>
		tspan { white-space:pre }
		.shp0 { fill: none;stroke: #ffffff;stroke-width: 2 } 
		.shp1 { fill: none;stroke: #f6f7fc;stroke-width: 2 } 
		.shp2 { fill: #ffffff } 
	</style>
	<g id="header">
		<g id="logo.svg">
			<path id="Rectangle 1" class="shp0" d="M62.67 67.86L33.86 12.86L5.05 67.86L62.67 67.86Z" />
			<path id="Ellipse 1" class="shp1" d="M33.5 0C52 0 67 14.87 67 33.21C67 51.56 52 66.43 33.5 66.43C15 66.43 0 51.56 0 33.21C0 14.87 15 0 33.5 0Z" />
			<path id="Ellipse 1 copy 8" class="shp2" d="M33.86 62.86C35.85 62.86 37.46 64.46 37.46 66.43C37.46 68.4 35.85 70 33.86 70C31.87 70 30.26 68.4 30.26 66.43C30.26 64.46 31.87 62.86 33.86 62.86Z" />
			<path id="Ellipse 1 copy 9" class="shp2" d="M60.52 62.86C62.51 62.86 64.12 64.46 64.12 66.43C64.12 68.4 62.51 70 60.52 70C58.53 70 56.91 68.4 56.91 66.43C56.91 64.46 58.53 62.86 60.52 62.86Z" />
			<path id="Ellipse 1 copy 11" class="shp2" d="M5.04 62.86C7.03 62.86 8.65 64.46 8.65 66.43C8.65 68.4 7.03 70 5.04 70C3.05 70 1.44 68.4 1.44 66.43C1.44 64.46 3.05 62.86 5.04 62.86Z" />
		</g>
	</g>
</svg>