<svg xmlns="http://www.w3.org/2000/svg" viewBox="0 0 23 37" width="23" height="37">
	<style>
		tspan { white-space:pre }
		.shp0 { fill: #ffffff } 
	</style>
	<g id="header">
		<path id="scroll.svg" class="shp0" d="M11.5 9.76C10.58 9.76 9.84 10.5 9.84 11.42C9.84 12.33 10.58 13.07 11.5 13.07C12.41 13.07 13.15 12.33 13.15 11.42C13.15 10.5 12.41 9.76 11.5 9.76ZM10.54 -0.01C4.61 0.47 0 5.44 0 11.42L0 25.49C0 31.84 5.16 37 11.5 37C17.84 37 23 31.84 23 25.49L23 11.42C23 5.44 18.38 0.47 12.45 -0.01M11.5 35.09C6.21 35.09 1.91 30.78 1.91 25.49L1.91 11.42C1.91 6.12 6.21 1.81 11.5 1.81C16.79 1.81 21.09 6.12 21.09 11.42L21.09 25.49C21.09 30.78 16.79 35.09 11.5 35.09Z" />
	</g>
</svg>